<mxfile host="app.diagrams.net" agent="Mozilla/5.0 (X11; Linux x86_64) AppleWebKit/537.36 (KHTML, like Gecko) Chrome/129.0.0.0 Safari/537.36" version="24.7.17">
  <diagram name="PÃ¡gina-1" id="QRYV-RqUdozJavFJE9cG">
    <mxGraphModel dx="1673" dy="819" grid="0" gridSize="10" guides="1" tooltips="1" connect="1" arrows="1" fold="1" page="0" pageScale="1" pageWidth="827" pageHeight="1169" math="0" shadow="0">
      <root>
        <mxCell id="0" />
        <mxCell id="1" parent="0" />
        <mxCell id="jQcF8yGu1WC4Efg16g3u-2" style="edgeStyle=orthogonalEdgeStyle;rounded=0;orthogonalLoop=1;jettySize=auto;html=1;exitX=1;exitY=0.5;exitDx=0;exitDy=0;" parent="1" source="jQcF8yGu1WC4Efg16g3u-1" edge="1">
          <mxGeometry relative="1" as="geometry">
            <mxPoint x="240" y="220" as="targetPoint" />
          </mxGeometry>
        </mxCell>
        <mxCell id="jQcF8yGu1WC4Efg16g3u-1" value="&lt;b&gt;SELLER&lt;/b&gt;" style="rounded=1;whiteSpace=wrap;html=1;fillColor=#f5f5f5;fontColor=#333333;strokeColor=#666666;" parent="1" vertex="1">
          <mxGeometry x="40" y="200" width="120" height="40" as="geometry" />
        </mxCell>
        <mxCell id="jQcF8yGu1WC4Efg16g3u-3" value="&lt;b&gt;Create Product&lt;/b&gt;" style="rounded=1;whiteSpace=wrap;html=1;" parent="1" vertex="1">
          <mxGeometry x="240" y="200" width="120" height="40" as="geometry" />
        </mxCell>
        <mxCell id="jQcF8yGu1WC4Efg16g3u-4" style="edgeStyle=orthogonalEdgeStyle;rounded=0;orthogonalLoop=1;jettySize=auto;html=1;exitX=1;exitY=0.5;exitDx=0;exitDy=0;" parent="1" edge="1">
          <mxGeometry relative="1" as="geometry">
            <mxPoint x="440" y="219.5" as="targetPoint" />
            <mxPoint x="360" y="219.5" as="sourcePoint" />
          </mxGeometry>
        </mxCell>
        <mxCell id="jQcF8yGu1WC4Efg16g3u-5" value="&lt;b&gt;Create Sell Order&lt;/b&gt;" style="rounded=1;whiteSpace=wrap;html=1;" parent="1" vertex="1">
          <mxGeometry x="440" y="200" width="120" height="40" as="geometry" />
        </mxCell>
        <mxCell id="jQcF8yGu1WC4Efg16g3u-6" value="&lt;h1 style=&quot;margin-top: 0px;&quot;&gt;SELLER FLOW&lt;/h1&gt;&lt;p&gt;This role is responsible for creating products and making them available for purchase through sales orders/slots.&lt;/p&gt;" style="text;html=1;whiteSpace=wrap;overflow=hidden;rounded=0;" parent="1" vertex="1">
          <mxGeometry x="40" y="60" width="180" height="120" as="geometry" />
        </mxCell>
        <mxCell id="jQcF8yGu1WC4Efg16g3u-7" style="edgeStyle=orthogonalEdgeStyle;rounded=0;orthogonalLoop=1;jettySize=auto;html=1;exitX=1;exitY=0.5;exitDx=0;exitDy=0;" parent="1" source="jQcF8yGu1WC4Efg16g3u-8" edge="1">
          <mxGeometry relative="1" as="geometry">
            <mxPoint x="240" y="340" as="targetPoint" />
          </mxGeometry>
        </mxCell>
        <mxCell id="jQcF8yGu1WC4Efg16g3u-8" value="&lt;b&gt;BUYER&lt;/b&gt;" style="rounded=1;whiteSpace=wrap;html=1;fillColor=#f5f5f5;fontColor=#333333;strokeColor=#666666;" parent="1" vertex="1">
          <mxGeometry x="40" y="320" width="120" height="40" as="geometry" />
        </mxCell>
        <mxCell id="jQcF8yGu1WC4Efg16g3u-9" value="&lt;b&gt;Buy Product&lt;/b&gt;" style="rounded=1;whiteSpace=wrap;html=1;" parent="1" vertex="1">
          <mxGeometry x="240" y="320" width="120" height="40" as="geometry" />
        </mxCell>
        <mxCell id="jQcF8yGu1WC4Efg16g3u-10" style="edgeStyle=orthogonalEdgeStyle;rounded=0;orthogonalLoop=1;jettySize=auto;html=1;exitX=1;exitY=0.5;exitDx=0;exitDy=0;" parent="1" edge="1">
          <mxGeometry relative="1" as="geometry">
            <mxPoint x="440" y="339.5" as="targetPoint" />
            <mxPoint x="360" y="339.5" as="sourcePoint" />
          </mxGeometry>
        </mxCell>
        <mxCell id="jQcF8yGu1WC4Efg16g3u-22" style="edgeStyle=orthogonalEdgeStyle;rounded=0;orthogonalLoop=1;jettySize=auto;html=1;exitX=1;exitY=0.5;exitDx=0;exitDy=0;entryX=0;entryY=0.5;entryDx=0;entryDy=0;" parent="1" source="jQcF8yGu1WC4Efg16g3u-11" edge="1" target="jQcF8yGu1WC4Efg16g3u-19">
          <mxGeometry relative="1" as="geometry">
            <mxPoint x="640" y="340" as="targetPoint" />
          </mxGeometry>
        </mxCell>
        <mxCell id="jQcF8yGu1WC4Efg16g3u-11" value="&lt;b&gt;Order Locked&lt;/b&gt;" style="rounded=1;whiteSpace=wrap;html=1;" parent="1" vertex="1">
          <mxGeometry x="440" y="320" width="120" height="40" as="geometry" />
        </mxCell>
        <mxCell id="jQcF8yGu1WC4Efg16g3u-15" value="&lt;h1 style=&quot;margin-top: 0px;&quot;&gt;BUYER FLOW&lt;/h1&gt;&lt;h1 style=&quot;margin-top: 0px;&quot;&gt;&lt;p style=&quot;font-size: 12px; font-weight: 400;&quot;&gt;This role is responsible for purchasing the products and receiving them.&lt;/p&gt;&lt;/h1&gt;" style="text;html=1;whiteSpace=wrap;overflow=hidden;rounded=0;" parent="1" vertex="1">
          <mxGeometry x="40" y="400" width="180" height="120" as="geometry" />
        </mxCell>
        <mxCell id="jQcF8yGu1WC4Efg16g3u-24" style="edgeStyle=orthogonalEdgeStyle;rounded=0;orthogonalLoop=1;jettySize=auto;html=1;exitX=1;exitY=0.5;exitDx=0;exitDy=0;" parent="1" source="jQcF8yGu1WC4Efg16g3u-17" edge="1">
          <mxGeometry relative="1" as="geometry">
            <mxPoint x="880" y="280" as="targetPoint" />
          </mxGeometry>
        </mxCell>
        <mxCell id="jQcF8yGu1WC4Efg16g3u-27" style="edgeStyle=orthogonalEdgeStyle;rounded=0;orthogonalLoop=1;jettySize=auto;html=1;exitX=0.5;exitY=1;exitDx=0;exitDy=0;" parent="1" source="jQcF8yGu1WC4Efg16g3u-17" edge="1">
          <mxGeometry relative="1" as="geometry">
            <mxPoint x="720" y="390" as="targetPoint" />
          </mxGeometry>
        </mxCell>
        <mxCell id="jQcF8yGu1WC4Efg16g3u-17" value="SCRIPT" style="swimlane;whiteSpace=wrap;html=1;" parent="1" vertex="1">
          <mxGeometry x="640" y="200" width="160" height="160" as="geometry" />
        </mxCell>
        <mxCell id="jQcF8yGu1WC4Efg16g3u-18" value="&lt;b&gt;Waiting&lt;/b&gt;" style="text;html=1;align=center;verticalAlign=middle;whiteSpace=wrap;rounded=0;" parent="jQcF8yGu1WC4Efg16g3u-17" vertex="1">
          <mxGeometry x="50" y="30" width="60" height="30" as="geometry" />
        </mxCell>
        <mxCell id="jQcF8yGu1WC4Efg16g3u-19" value="&lt;b&gt;Locking&lt;/b&gt;" style="text;html=1;align=center;verticalAlign=middle;whiteSpace=wrap;rounded=0;" parent="jQcF8yGu1WC4Efg16g3u-17" vertex="1">
          <mxGeometry x="50" y="60" width="60" height="30" as="geometry" />
        </mxCell>
        <mxCell id="jQcF8yGu1WC4Efg16g3u-20" value="&lt;b&gt;Shipping&lt;/b&gt;" style="text;html=1;align=center;verticalAlign=middle;whiteSpace=wrap;rounded=0;" parent="jQcF8yGu1WC4Efg16g3u-17" vertex="1">
          <mxGeometry x="50" y="90" width="60" height="30" as="geometry" />
        </mxCell>
        <mxCell id="jQcF8yGu1WC4Efg16g3u-21" value="&lt;b&gt;Received&lt;/b&gt;" style="text;html=1;align=center;verticalAlign=middle;whiteSpace=wrap;rounded=0;" parent="jQcF8yGu1WC4Efg16g3u-17" vertex="1">
          <mxGeometry x="50" y="120" width="60" height="30" as="geometry" />
        </mxCell>
        <mxCell id="jQcF8yGu1WC4Efg16g3u-23" style="edgeStyle=orthogonalEdgeStyle;rounded=0;orthogonalLoop=1;jettySize=auto;html=1;exitX=1;exitY=0.5;exitDx=0;exitDy=0;entryX=0;entryY=0.5;entryDx=0;entryDy=0;" parent="1" source="jQcF8yGu1WC4Efg16g3u-5" target="jQcF8yGu1WC4Efg16g3u-18" edge="1">
          <mxGeometry relative="1" as="geometry" />
        </mxCell>
        <mxCell id="jQcF8yGu1WC4Efg16g3u-30" style="edgeStyle=orthogonalEdgeStyle;rounded=0;orthogonalLoop=1;jettySize=auto;html=1;exitX=1;exitY=0.5;exitDx=0;exitDy=0;entryX=0;entryY=0.5;entryDx=0;entryDy=0;" parent="1" source="jQcF8yGu1WC4Efg16g3u-25" target="jQcF8yGu1WC4Efg16g3u-29" edge="1">
          <mxGeometry relative="1" as="geometry">
            <mxPoint x="1030" y="280" as="targetPoint" />
          </mxGeometry>
        </mxCell>
        <mxCell id="jQcF8yGu1WC4Efg16g3u-37" style="edgeStyle=orthogonalEdgeStyle;rounded=0;orthogonalLoop=1;jettySize=auto;html=1;exitX=0.5;exitY=1;exitDx=0;exitDy=0;entryX=0;entryY=0.5;entryDx=0;entryDy=0;" parent="1" source="jQcF8yGu1WC4Efg16g3u-25" target="jQcF8yGu1WC4Efg16g3u-35" edge="1">
          <mxGeometry relative="1" as="geometry" />
        </mxCell>
        <mxCell id="jQcF8yGu1WC4Efg16g3u-40" style="edgeStyle=orthogonalEdgeStyle;rounded=0;orthogonalLoop=1;jettySize=auto;html=1;exitX=0.5;exitY=1;exitDx=0;exitDy=0;entryX=0;entryY=0.5;entryDx=0;entryDy=0;" parent="1" source="jQcF8yGu1WC4Efg16g3u-25" target="jQcF8yGu1WC4Efg16g3u-38" edge="1">
          <mxGeometry relative="1" as="geometry" />
        </mxCell>
        <mxCell id="jQcF8yGu1WC4Efg16g3u-41" style="edgeStyle=orthogonalEdgeStyle;rounded=0;orthogonalLoop=1;jettySize=auto;html=1;exitX=0.5;exitY=1;exitDx=0;exitDy=0;entryX=0;entryY=0.5;entryDx=0;entryDy=0;" parent="1" source="jQcF8yGu1WC4Efg16g3u-25" target="jQcF8yGu1WC4Efg16g3u-39" edge="1">
          <mxGeometry relative="1" as="geometry" />
        </mxCell>
        <mxCell id="jQcF8yGu1WC4Efg16g3u-25" value="&lt;b&gt;Appeal&lt;/b&gt;" style="rounded=1;whiteSpace=wrap;html=1;" parent="1" vertex="1">
          <mxGeometry x="880" y="260" width="120" height="40" as="geometry" />
        </mxCell>
        <mxCell id="jQcF8yGu1WC4Efg16g3u-26" value="&lt;b&gt;Finish&lt;/b&gt;" style="rounded=1;whiteSpace=wrap;html=1;" parent="1" vertex="1">
          <mxGeometry x="660" y="400" width="120" height="40" as="geometry" />
        </mxCell>
        <mxCell id="jQcF8yGu1WC4Efg16g3u-28" value="&lt;h1 style=&quot;margin-top: 0px;&quot;&gt;MEDIATOR FLOW&lt;/h1&gt;&lt;p&gt;This role is responsible for deciding on the negotiation in case of an appeal for possible non-compliance.&lt;/p&gt;" style="text;html=1;whiteSpace=wrap;overflow=hidden;rounded=0;" parent="1" vertex="1">
          <mxGeometry x="880" y="40" width="220" height="120" as="geometry" />
        </mxCell>
        <mxCell id="jQcF8yGu1WC4Efg16g3u-29" value="&lt;b&gt;Buyer Penalty&lt;/b&gt;" style="rounded=1;whiteSpace=wrap;html=1;" parent="1" vertex="1">
          <mxGeometry x="1040" y="260" width="120" height="40" as="geometry" />
        </mxCell>
        <mxCell id="jQcF8yGu1WC4Efg16g3u-34" style="edgeStyle=orthogonalEdgeStyle;rounded=0;orthogonalLoop=1;jettySize=auto;html=1;exitX=0.5;exitY=1;exitDx=0;exitDy=0;entryX=0.5;entryY=0;entryDx=0;entryDy=0;" parent="1" source="jQcF8yGu1WC4Efg16g3u-33" target="jQcF8yGu1WC4Efg16g3u-25" edge="1">
          <mxGeometry relative="1" as="geometry" />
        </mxCell>
        <mxCell id="jQcF8yGu1WC4Efg16g3u-33" value="&lt;b&gt;MEDIATOR&lt;/b&gt;" style="rounded=1;whiteSpace=wrap;html=1;fillColor=#f5f5f5;fontColor=#333333;strokeColor=#666666;" parent="1" vertex="1">
          <mxGeometry x="880" y="200" width="120" height="40" as="geometry" />
        </mxCell>
        <mxCell id="jQcF8yGu1WC4Efg16g3u-35" value="&lt;b&gt;Seller Penalty&lt;/b&gt;" style="rounded=1;whiteSpace=wrap;html=1;" parent="1" vertex="1">
          <mxGeometry x="1040" y="320" width="120" height="40" as="geometry" />
        </mxCell>
        <mxCell id="jQcF8yGu1WC4Efg16g3u-38" value="&lt;b&gt;Contract Nullity&lt;/b&gt;" style="rounded=1;whiteSpace=wrap;html=1;" parent="1" vertex="1">
          <mxGeometry x="1040" y="380" width="120" height="40" as="geometry" />
        </mxCell>
        <mxCell id="jQcF8yGu1WC4Efg16g3u-39" value="&lt;b&gt;Normal Termination&lt;/b&gt;" style="rounded=1;whiteSpace=wrap;html=1;" parent="1" vertex="1">
          <mxGeometry x="1040" y="440" width="120" height="40" as="geometry" />
        </mxCell>
      </root>
    </mxGraphModel>
  </diagram>
</mxfile>
